# xmcd CD database file
#
# Track frame offsets:
#	150
#	34211
#	72735
#	116213
#	143709
#	165879
#	192597
#	229677
#	257725
#
# Disc length: 3570 seconds
#
# Revision: 0
# Processed by: cddbd v1.5.2PL0 Copyright (c) Steve Scherf et al.
# Submitted via: CDex 1.51
#
DISCID=820df009
DTITLE=Schmitt and Brandt Quintett - Continuance
DYEAR=2005
DGENRE=Jazz
TTITLE0=4.1 Special
TTITLE1=Panama
TTITLE2=Jazzity
TTITLE3=A Night as Thousand Eyes
TTITLE4=Très Chick
TTITLE5=Tom's Blues
TTITLE6=Darn That Dream
TTITLE7=Yesterdays
TTITLE8=Blau
EXTD=YEAR: 2005
EXTT0=
EXTT1=
EXTT2=
EXTT3=
EXTT4=
EXTT5=
EXTT6=
EXTT7=
EXTT8=
PLAYORDER=
